:FULLY-SPECIFIED
:FORCE-ALL-JOINTS-BE-3DOF
:DEGREES
781
root 1.62037 16.3855 18.6382 -10.7638 74.4429 -16.6909
lfemur -35.5179 10.0487 -12.8761
ltibia 50.1541 -0 0
lfoot -22.42 19.7608 -0.0655128
ltoes 14.2708 -0 0
rfemur -15.3654 -21.4751 21.1612
rtibia 51.7761 -0 0
rfoot -17.0567 -30.1623 -0.0157667
rtoes -25.7899 0 0
lowerback 1.11064 4.67244 -0.525925
upperback -0.787117 6.21905 -3.62614
thorax -1.08108 3.11866 -3.54224
lowerneck -5.42528 -6.44219 -0.510207
upperneck -1.86961 -8.51626 4.7067
head 0.561501 -4.18736 1.34661
lclavicle 4.27387e-014 -7.95139e-014 0
lhumerus -55.8159 -11.5956 94.9147
lradius 70.5224 -0 0
lwrist 14.0919 0 0
lhand -22.1995 -4.40858 -0.00458498
lfingers 7.12502 -0 0
lthumb 4.21608 25.5281 -0.00454803
rclavicle 4.27387e-014 -7.95139e-014 0
rhumerus -31.5139 48.4242 -113.098
rradius 79.7986 -0 0
rwrist 5.61888 0 0
rhand -23.5632 -20.3216 0.00741121
rfingers 7.12502 -0 0
rthumb 2.89895 -50.2694 0.0084001
782
root 1.56195 16.4251 18.7269 -6.92467 71.2113 347.239
lfemur -34.7552 8.09737 -11.9151
ltibia 49.3533 0 0
lfoot -21.4598 18.982 0
ltoes 12.5952 0 0
rfemur -15.3768 -20.4284 20.8538
rtibia 50.9662 0 0
rfoot -17.3185 -29.4731 0
rtoes -26.7349 0 0
lowerback 1.10842 4.65497 -0.379799
upperback -0.72826 6.19675 -3.56839
thorax -1.01115 3.10542 -3.55875
lowerneck -5.45462 -6.31936 -0.392726
upperneck -1.88461 -8.36009 4.59432
head 0.544855 -4.11239 1.29564
lclavicle 4.27387e-014 -7.95139e-014 0
lhumerus -55.9593 -11.6075 94.9847
lradius 70.5457 0 0
lwrist 14.154 0 0
lhand -22.4439 -4.19366 0
lfingers 7.12502 0 0
lthumb 3.98011 25.7489 0
rclavicle 4.27387e-014 -7.95139e-014 0
rhumerus -31.8993 47.9666 -113.615
rradius 79.8441 0 0
rwrist 5.3452 0 0
rhand -24.2923 -20.4379 0
rfingers 7.12502 0 0
rthumb 2.19506 -770.406 0
783
root 1.55559 16.4391 18.8197 -4.82047 68.5114 -10.8675
lfemur -35.0724 6.73851 -11.5092
ltibia 49.6994 -0 0
lfoot -21.3585 17.0598 -0.0171506
ltoes 12.3344 -0 0
rfemur -15.5224 -19.4977 20.8322
rtibia 50.4522 -0 0
rfoot -17.6753 -28.3547 -0.0349513
rtoes -26.4693 0 0
lowerback 0.876172 4.65348 -0.170953
upperback -0.760676 6.20008 -3.45115
thorax -0.905442 3.10658 -3.53398
lowerneck -5.49159 -6.17559 -0.293814
upperneck -1.77703 -8.18043 4.45052
head 0.570586 -4.02347 1.23776
lclavicle 1.20265e-014 -3.18055e-015 0
lhumerus -55.9894 -11.4091 94.8726
lradius 70.4448 -0 0
lwrist 14.6641 0 0
lhand -22.1163 -3.83087 0.0103769
lfingers 7.12502 -0 0
lthumb 4.29637 26.1031 0.00978255
rclavicle 1.20265e-014 -3.18055e-015 0
rhumerus -32.3164 47.7805 -113.865
rradius 79.5016 -0 0
rwrist 5.19366 0 0
rhand -24.1833 -20.7848 -0.00329894
rfingers 7.12502 -0 0
rthumb 2.30028 -50.7515 -0.00317373
784
root 1.54922 16.4532 18.9124 -3.15834 65.7916 -9.41792
lfemur -35.3984 5.38194 -11.0968
ltibia 50.0455 -0 0
lfoot -21.2567 15.1376 -0.0308944
ltoes 12.0736 -0 0
rfemur -15.6676 -18.5671 20.8083
rtibia 49.9382 -0 0
rfoot -18.0328 -27.2361 -0.0629299
rtoes -26.2037 0 0
lowerback 0.643921 4.65283 0.0378963
upperback -0.793084 6.20347 -3.33391
thorax -0.799733 3.10769 -3.50922
lowerneck -5.52829 -6.03176 -0.195022
upperneck -1.66996 -8.0005 4.30713
head 0.596225 -3.93453 1.17992
lclavicle 1.20265e-014 -3.18055e-015 0
lhumerus -56.0198 -11.2107 94.7605
lradius 70.3439 -0 0
lwrist 15.1743 0 0
lhand -21.7887 -3.46802 0.0186794
lfingers 7.12502 -0 0
lthumb 4.61269 26.4574 0.0176094
rclavicle 1.20265e-014 -3.18055e-015 0
rhumerus -32.7308 47.5933 -114.112
rradius 79.1592 -0 0
rwrist 5.04213 0 0
rhand -24.0744 -21.1316 -0.00593826
rfingers 7.12502 -0 0
rthumb 2.40551 -51.0971 -0.00571287
785
root 1.54286 16.4672 19.0052 -1.80591 63.0581 -8.28024
lfemur -35.7336 4.02775 -10.6775
ltibia 50.3915 -0 0
lfoot -21.1545 13.2154 -0.0412159
ltoes 11.8128 -0 0
rfemur -15.8124 -17.6366 20.782
rtibia 49.4241 -0 0
rfoot -18.3908 -26.1173 -0.0839242
rtoes -25.9381 0 0
lowerback 0.411668 4.65303 0.246747
upperback -0.825486 6.20693 -3.21667
thorax -0.694024 3.10876 -3.48445
lowerneck -5.56474 -5.88787 -0.0963485
upperneck -1.56339 -7.8203 4.16414
head 0.621771 -3.84556 1.12213
lclavicle 1.20265e-014 -3.18055e-015 0
lhumerus -56.0506 -11.0124 94.6484
lradius 70.243 -0 0
lwrist 15.6844 0 0
lhand -21.461 -3.10513 0.0249068
lfingers 7.12502 -0 0
lthumb 4.92906 26.8118 0.02348
rclavicle 1.20265e-014 -3.18055e-015 0
rhumerus -33.1425 47.4048 -114.356
rradius 78.8167 -0 0
rwrist 4.89059 0 0
rhand -23.9654 -21.4785 -0.00791783
rfingers 7.12502 -0 0
rthumb 2.51076 -51.4426 -0.00761731
786
root 1.5365 16.4812 19.098 -0.678153 60.3146 -7.36972
lfemur -36.0782 2.67607 -10.2508
ltibia 50.7376 -0 0
lfoot -21.052 11.2931 -0.0481033
ltoes 11.552 -0 0
rfemur -15.9569 -16.7061 20.7534
rtibia 48.9101 -0 0
rfoot -18.749 -24.9984 -0.0979253
rtoes -25.6725 0 0
lowerback 0.179418 4.65407 0.455595
upperback -0.857881 6.21046 -3.09943
thorax -0.588314 3.10978 -3.45967
lowerneck -5.60093 -5.74392 0.0022078
upperneck -1.45731 -7.63984 4.02155
head 0.647224 -3.75657 1.06439
lclavicle 1.20265e-014 -3.18055e-015 0
lhumerus -56.0818 -10.8141 94.5362
lradius 70.1421 -0 0
lwrist 16.1945 0 0
lhand -21.1333 -2.74221 0.0290586
lfingers 7.12502 -0 0
lthumb 5.24545 27.1661 0.027394
rclavicle 1.20265e-014 -3.18055e-015 0
rhumerus -33.5516 47.2152 -114.598
rradius 78.4742 -0 0
rwrist 4.73906 0 0
rhand -23.8564 -21.8253 -0.0092376
rfingers 7.12502 -0 0
rthumb 2.61602 -51.7882 -0.00888698
787
root 1.53013 16.4952 19.1907 0.281874 57.5638 -6.62971
lfemur -36.4326 1.32701 -9.81633
ltibia 51.0837 -0 0
lfoot -20.9494 9.37089 -0.051549
ltoes 11.2912 -0 0
rfemur -16.1012 -15.7757 20.7225
rtibia 48.3961 -0 0
rfoot -19.1075 -23.8794 -0.104927
rtoes -25.4069 0 0
lowerback -0.0528272 4.65595 0.664438
upperback -0.890269 6.21405 -2.9822
thorax -0.482604 3.11076 -3.4349
lowerneck -5.63686 -5.5999 0.100648
upperneck -1.35174 -7.45913 3.87936
head 0.672585 -3.66755 1.00669
lclavicle 1.20265e-014 -3.18055e-015 0
lhumerus -56.1134 -10.6159 94.424
lradius 70.0412 -0 0
lwrist 16.7047 0 0
lhand -20.8056 -2.37927 0.0311346
lfingers 7.12502 -0 0
lthumb 5.56186 27.5205 0.029351
rclavicle 1.20265e-014 -3.18055e-015 0
rhumerus -33.958 47.0244 -114.836
rradius 78.1317 -0 0
rwrist 4.58752 0 0
rhand -23.7474 -22.1722 -0.00989749
rfingers 7.12502 -0 0
rthumb 2.72128 -52.1337 -0.00952183
788
root 1.52377 16.5093 19.2835 1.1137 54.8073 -6.02099
lfemur -36.7971 -0.0193014 -9.37366
ltibia 51.4298 -0 0
lfoot -20.8466 7.44863 -0.051549
ltoes 11.0304 -0 0
rfemur -16.2454 -14.8453 20.6893
rtibia 47.8821 -0 0
rfoot -19.4661 -22.7605 -0.104927
rtoes -25.1412 0 0
lowerback -0.285065 4.65868 0.873272
upperback -0.92265 6.21771 -2.86496
thorax -0.376893 3.11169 -3.41012
lowerneck -5.67253 -5.45583 0.198974
upperneck -1.24666 -7.27815 3.73756
head 0.697853 -3.57851 0.949041
lclavicle 1.20265e-014 -3.18055e-015 0
lhumerus -56.1453 -10.4178 94.3117
lradius 69.9403 -0 0
lwrist 17.2148 0 0
lhand -20.4779 -2.01633 0.0311346
lfingers 7.12502 -0 0
lthumb 5.87827 27.8749 0.029351
rclavicle 1.20265e-014 -3.18055e-015 0
rhumerus -34.3618 46.8324 -115.072
rradius 77.7893 -0 0
rwrist 4.43599 0 0
rhand -23.6384 -22.5191 -0.00989749
rfingers 7.12502 -0 0
rthumb 2.82654 -52.4793 -0.00952183
789
root 1.5174 16.5233 19.3762 1.84559 52.0464 -5.51564
lfemur -37.1721 -1.36273 -8.9223
ltibia 51.7759 -0 0
lfoot -20.744 5.52638 -0.0481033
ltoes 10.7697 -0 0
rfemur -16.3896 -13.9151 20.6538
rtibia 47.3681 -0 0
rfoot -19.8246 -21.6415 -0.0979253
rtoes -24.8756 0 0
lowerback -0.517292 4.66225 1.08209
upperback -0.955023 6.22144 -2.74773
thorax -0.271182 3.11258 -3.38535
lowerneck -5.70795 -5.31169 0.297186
upperneck -1.14207 -7.09692 3.59615
head 0.72303 -3.48944 0.891433
lclavicle 1.20265e-014 -3.18055e-015 0
lhumerus -56.1776 -10.2197 94.1994
lradius 69.8394 -0 0
lwrist 17.725 0 0
lhand -20.1502 -1.65339 0.0290586
lfingers 7.12502 -0 0
lthumb 6.19468 28.2293 0.027394
rclavicle 1.20265e-014 -3.18055e-015 0
rhumerus -34.763 46.6394 -115.305
rradius 77.4468 -0 0
rwrist 4.28445 0 0
rhand -23.5294 -22.866 -0.0092376
rfingers 7.12502 -0 0
rthumb 2.9318 -52.8248 -0.00888698
790
root 1.51104 16.5373 19.469 2.49831 49.2822 -5.09325
lfemur -37.558 -2.70313 -8.46178
ltibia 52.122 -0 0
lfoot -20.6415 3.60413 -0.0412159
ltoes 10.5089 -0 0
rfemur -16.5338 -12.9849 20.6161
rtibia 46.8541 -0 0
rfoot -20.1828 -20.5226 -0.0839242
rtoes -24.61 0 0
lowerback -0.749506 4.66667 1.2909
upperback -0.987389 6.22523 -2.6305
thorax -0.16547 3.11342 -3.36057
lowerneck -5.74311 -5.16749 0.395286
upperneck -1.03798 -6.91543 3.45513
head 0.748114 -3.40034 0.83387
lclavicle 1.20265e-014 -3.18055e-015 0
lhumerus -56.2103 -10.0217 94.0871
lradius 69.7385 -0 0
lwrist 18.2351 0 0
lhand -19.8225 -1.29047 0.0249068
lfingers 7.12502 -0 0
lthumb 6.51107 28.5836 0.02348
rclavicle 1.20265e-014 -3.18055e-015 0
rhumerus -35.1617 46.4452 -115.535
rradius 77.1043 -0 0
rwrist 4.13292 0 0
rhand -23.4204 -23.2128 -0.00791783
rfingers 7.12502 -0 0
rthumb 3.03706 -53.1704 -0.00761731
791
root 1.50468 16.5513 19.5618 3.08744 46.5152 -4.73861
lfemur -37.9553 -4.04035 -7.99158
ltibia 52.468 -0 0
lfoot -20.5393 1.68191 -0.0308944
ltoes 10.2481 -0 0
rfemur -16.6781 -12.0548 20.5761
rtibia 46.34 -0 0
rfoot -20.5408 -19.4038 -0.0629299
rtoes -24.3444 0 0
lowerback -0.981704 4.67192 1.49969
upperback -1.01975 6.22908 -2.51327
thorax -0.0597577 3.11421 -3.33579
lowerneck -5.77802 -5.02323 0.493275
upperneck -0.934375 -6.73369 3.3145
head 0.773106 -3.31122 0.776351
lclavicle 1.20265e-014 -3.18055e-015 0
lhumerus -56.2434 -9.82374 93.9747
lradius 69.6376 -0 0
lwrist 18.7452 0 0
lhand -19.4948 -0.927584 0.0186794
lfingers 7.12502 -0 0
lthumb 6.82744 28.938 0.0176094
rclavicle 1.20265e-014 -3.18055e-015 0
rhumerus -35.5578 46.2499 -115.762
rradius 76.7618 -0 0
rwrist 3.98138 0 0
rhand -23.3114 -23.5597 -0.00593826
rfingers 7.12502 -0 0
rthumb 3.14231 -53.5159 -0.00571287
792
root 1.49831 16.5654 19.6545 3.62495 43.746 -4.44017
lfemur -38.3642 -5.37424 -7.51118
ltibia 52.8141 -0 0
lfoot -20.4375 -0.240301 -0.0171506
ltoes 9.98728 -0 0
rfemur -16.8226 -11.1249 20.5338
rtibia 45.826 -0 0
rfoot -20.8983 -18.2852 -0.0349513
rtoes -24.0788 0 0
lowerback -1.21388 4.67803 1.70846
upperback -1.0521 6.233 -2.39604
thorax 0.045955 3.11496 -3.311
lowerneck -5.81267 -4.87892 0.591155
upperneck -0.831257 -6.55169 3.17425
head 0.798006 -3.22208 0.718876
lclavicle 1.20265e-014 -3.18055e-015 0
lhumerus -56.2768 -9.62586 93.8623
lradius 69.5367 -0 0
lwrist 19.2554 0 0
lhand -19.1672 -0.564736 0.0103769
lfingers 7.12502 -0 0
lthumb 7.14376 29.2923 0.00978255
rclavicle 1.20265e-014 -3.18055e-015 0
rhumerus -35.9513 46.0536 -115.986
rradius 76.4194 -0 0
rwrist 3.82985 0 0
rhand -23.2025 -23.9065 -0.00329894
rfingers 7.12502 -0 0
rthumb 3.24754 -53.8615 -0.00317373
